<svg width="45" height="45" viewBox="0 0 45 45" fill="none" xmlns="http://www.w3.org/2000/svg">
<path fill-rule="evenodd" clip-rule="evenodd" d="M22.3969 3.43852C22.1491 3.80622 21.8438 4.34827 21.3893 5.1636L21.1163 5.65348C21.096 5.68986 21.0751 5.72787 21.0534 5.76723C20.8272 6.17827 20.5199 6.73664 20.0125 7.12186C19.4957 7.51418 18.8724 7.65137 18.4268 7.74945C18.3845 7.75877 18.3438 7.76773 18.305 7.77652L17.7747 7.8965C16.8056 8.11578 16.2016 8.25613 15.7958 8.398C16.0467 8.77499 16.4679 9.27296 17.1512 10.0719L17.5127 10.4947C17.5393 10.5258 17.567 10.5579 17.5956 10.591C17.9034 10.9473 18.3129 11.4213 18.5022 12.03C18.6895 12.6323 18.6261 13.2554 18.5776 13.7317C18.5731 13.7762 18.5687 13.8194 18.5646 13.8612L18.51 14.4252C18.4123 15.4328 18.3522 16.0846 18.3539 16.5457C18.7543 16.4037 19.3028 16.1546 20.1398 15.7692L20.6363 15.5406C20.6729 15.5238 20.7111 15.5059 20.751 15.4872C21.1632 15.2943 21.7479 15.0207 22.3969 15.0207C23.046 15.0207 23.6307 15.2943 24.0429 15.4872C24.0827 15.5059 24.121 15.5238 24.1575 15.5406L24.654 15.7692C25.4911 16.1546 26.0395 16.4037 26.44 16.5457C26.4417 16.0846 26.3815 15.4328 26.2839 14.4252L26.2292 13.8612C26.2252 13.8194 26.2208 13.7762 26.2163 13.7317C26.1678 13.2554 26.1044 12.6323 26.2917 12.03C26.481 11.4213 26.8904 10.9473 27.1982 10.591C27.2268 10.5579 27.2546 10.5258 27.2812 10.4947L27.6427 10.0719C28.3259 9.27296 28.7471 8.77499 28.9981 8.398C28.5922 8.25613 27.9883 8.11577 27.0192 7.8965L26.4889 7.77652C26.45 7.76773 26.4093 7.75877 26.367 7.74945C25.9214 7.65137 25.2982 7.51418 24.7814 7.12186C24.2739 6.73664 23.9666 6.17826 23.7404 5.76722C23.7188 5.72786 23.6979 5.68985 23.6776 5.65348L23.4045 5.1636C22.95 4.34827 22.6447 3.80622 22.3969 3.43852ZM26.8822 16.6671C26.8845 16.6671 26.8858 16.6672 26.8858 16.6673ZM17.908 16.6673C17.9081 16.6672 17.9093 16.6671 17.9117 16.6671ZM20.0701 1.32258C20.5195 0.735859 21.2531 0 22.3969 0C23.5408 0 24.2744 0.735858 24.7237 1.32258C25.1564 1.88757 25.5993 2.68232 26.0809 3.54666C26.0986 3.57836 26.1163 3.61015 26.1341 3.64203L26.4071 4.13191C26.4838 4.26945 26.5431 4.37577 26.5958 4.46691C26.6312 4.52816 26.6589 4.57443 26.6813 4.61013C26.7163 4.61981 26.7606 4.6313 26.8175 4.64514C26.9154 4.66899 27.0293 4.69481 27.1785 4.72856L27.7088 4.84855C27.745 4.85673 27.781 4.86488 27.817 4.87302C28.7481 5.08352 29.6171 5.27998 30.2733 5.53859C30.9843 5.8188 31.8434 6.32382 32.1744 7.3883C32.5002 8.43575 32.0992 9.34002 31.6941 9.98354C31.3135 10.5881 30.7259 11.275 30.0877 12.0211L29.6562 12.5257C29.5546 12.6444 29.4764 12.736 29.4099 12.8162C29.3554 12.882 29.3177 12.9296 29.2907 12.9654C29.2943 13.0815 29.3091 13.2448 29.3397 13.5598L29.4046 14.2299C29.5015 15.2283 29.5899 16.1396 29.5579 16.8573C29.5247 17.603 29.3488 18.601 28.4624 19.2739C27.5505 19.9661 26.5317 19.8311 25.809 19.6241C25.1327 19.4303 24.3201 19.056 23.4488 18.6546C23.4149 18.639 23.381 18.6234 23.347 18.6078L22.8505 18.3791C22.7109 18.3149 22.604 18.2657 22.5112 18.2248C22.4655 18.2046 22.428 18.1886 22.3969 18.1758C22.3659 18.1886 22.3284 18.2046 22.2827 18.2248C22.1898 18.2657 22.083 18.3149 21.9433 18.3791L21.4468 18.6078C21.4128 18.6234 21.3789 18.639 21.3451 18.6546C20.4738 19.056 19.6612 19.4303 18.9848 19.6241C18.2622 19.8311 17.2434 19.9661 16.3315 19.2739C15.4451 18.601 15.2691 17.603 15.2359 16.8573C15.204 16.1396 15.2924 15.2283 15.3892 14.2299C15.3927 14.1947 15.3961 14.1593 15.3995 14.1238L15.4542 13.5598C15.4847 13.2448 15.4996 13.0815 15.5031 12.9654C15.4762 12.9296 15.4385 12.882 15.384 12.8162C15.3175 12.736 15.2392 12.6444 15.1377 12.5257L14.7762 12.1029C14.7528 12.0756 14.7294 12.0483 14.7061 12.0211C14.0679 11.2749 13.4804 10.5881 13.0998 9.98354C12.6947 9.34003 12.2937 8.43575 12.6194 7.3883C12.9504 6.32382 13.8095 5.8188 14.5206 5.53859C15.1768 5.27998 16.0458 5.08352 16.9768 4.87302C17.0128 4.86489 17.0489 4.85673 17.0851 4.84855L17.6153 4.72856C17.7645 4.69481 17.8785 4.66899 17.9764 4.64514C18.0332 4.6313 18.0775 4.61982 18.1126 4.61014C18.1349 4.57444 18.1627 4.52816 18.1981 4.46691C18.2507 4.37577 18.31 4.26945 18.3867 4.13191L18.6598 3.64203C18.6776 3.61015 18.6953 3.57836 18.7129 3.54666C19.1946 2.68232 19.6375 1.88757 20.0701 1.32258ZM5.73026 14.4825C5.83894 14.6832 6.07032 15.0928 6.45011 15.3811C6.85825 15.6909 7.34815 15.7941 7.55173 15.837C7.57208 15.8413 7.58956 15.8449 7.60382 15.8482L7.64673 15.8579L7.57863 15.9375C7.56816 15.9497 7.55555 15.9641 7.54114 15.9805C7.39828 16.1433 7.07896 16.5071 6.93163 16.9809C6.78631 17.4482 6.83868 17.9267 6.86261 18.1454C6.86505 18.1677 6.86719 18.1873 6.8688 18.2039L6.87105 18.227C6.67458 18.133 6.22917 17.927 5.73026 17.927C5.23135 17.927 4.78594 18.133 4.58947 18.227L4.59172 18.2039C4.59332 18.1873 4.59547 18.1677 4.59791 18.1454C4.62184 17.9267 4.6742 17.4482 4.52889 16.9809C4.38156 16.5071 4.06223 16.1433 3.91937 15.9805C3.90496 15.9641 3.89235 15.9497 3.88189 15.9375L3.81379 15.8579L3.85669 15.8482C3.87095 15.8449 3.88844 15.8413 3.90879 15.837C4.11237 15.7941 4.60227 15.6909 5.01041 15.3811C5.3902 15.0928 5.62157 14.6832 5.73026 14.4825ZM3.51188 14.3242L3.21628 13.0177ZM4.49276 19.5466C4.4932 19.5497 4.49335 19.5513 4.49332 19.5513ZM6.96719 19.5513C6.96716 19.5513 6.96732 19.5497 6.96776 19.5466ZM3.9466 11.3842C4.21466 11.0342 4.78368 10.4167 5.73026 10.4167C6.67683 10.4167 7.24586 11.0342 7.51391 11.3842C7.76616 11.7136 8.01335 12.1575 8.24079 12.566C8.25433 12.5903 8.26781 12.6145 8.28122 12.6385L8.38258 12.8204L8.5586 12.8602C8.58541 12.8663 8.61245 12.8724 8.63968 12.8785C9.07904 12.9777 9.56869 13.0882 9.95488 13.2404C10.3944 13.4136 11.095 13.7916 11.365 14.6601C11.6298 15.5115 11.2856 16.2156 11.04 16.6059C10.8181 16.9584 10.4895 17.3423 10.1877 17.6948C10.1698 17.7157 10.152 17.7365 10.1344 17.7571L9.98238 17.9349L10.0066 18.1845C10.0092 18.2115 10.0118 18.2387 10.0145 18.2659C10.0604 18.7382 10.1098 19.2451 10.0912 19.6613C10.0715 20.1042 9.96218 20.9054 9.23537 21.4571C8.48306 22.0282 7.66397 21.8879 7.22111 21.761C6.8231 21.6469 6.36571 21.436 5.95477 21.2466C5.92919 21.2348 5.90378 21.223 5.87857 21.2114L5.73026 21.1431L5.58193 21.2114C5.55674 21.223 5.53133 21.2348 5.50574 21.2466C5.0948 21.436 4.63741 21.6469 4.23941 21.761C3.79655 21.8879 2.97745 22.0282 2.22514 21.4571C1.49834 20.9054 1.38901 20.1042 1.36928 19.6613C1.35074 19.2451 1.40008 18.7382 1.44604 18.2659C1.44869 18.2387 1.45134 18.2115 1.45396 18.1845L1.47814 17.9349L1.32613 17.7571C1.30848 17.7365 1.2907 17.7157 1.27283 17.6948C0.971045 17.3423 0.642439 16.9584 0.420542 16.6059C0.174872 16.2156 -0.169275 15.5115 0.0954929 14.6601C0.365559 13.7916 1.06607 13.4136 1.50564 13.2404C1.89182 13.0882 2.38147 12.9777 2.82083 12.8785C2.84807 12.8724 2.87511 12.8663 2.90192 12.8602L3.07794 12.8204L3.1793 12.6385C3.1927 12.6145 3.20617 12.5903 3.21972 12.566C3.44715 12.1575 3.69435 11.7136 3.9466 11.3842ZM39.0636 14.4825C39.1723 14.6832 39.4036 15.0928 39.7834 15.3811C40.1916 15.6909 40.6815 15.7941 40.8851 15.837C40.9054 15.8413 40.9229 15.8449 40.9372 15.8482L40.9801 15.8579L40.912 15.9375C40.9015 15.9497 40.8889 15.9641 40.8745 15.9805C40.7316 16.1433 40.4123 16.5071 40.265 16.9809C40.1196 17.4482 40.172 17.9267 40.1959 18.1454C40.1984 18.1677 40.2005 18.1873 40.2021 18.2039L40.2044 18.227C40.0079 18.133 39.5625 17.927 39.0636 17.927C38.5647 17.927 38.1193 18.133 37.9228 18.227L37.9251 18.2039C37.9267 18.1873 37.9288 18.1677 37.9312 18.1454C37.9552 17.9267 38.0075 17.4482 37.8622 16.9809C37.7149 16.5071 37.3956 16.1433 37.2527 15.9805C37.2383 15.9641 37.2257 15.9497 37.2152 15.9375L37.1471 15.8579L37.19 15.8482C37.2043 15.8449 37.2218 15.8413 37.2421 15.837C37.4457 15.7941 37.9356 15.6909 38.3437 15.3811C38.7235 15.0928 38.9549 14.6832 39.0636 14.4825ZM37.8261 19.5466C37.8266 19.5499 37.8267 19.5515 37.8266 19.5513ZM37.2799 11.3842C37.548 11.0342 38.117 10.4167 39.0636 10.4167C40.0102 10.4167 40.5792 11.0342 40.8472 11.3842C41.0995 11.7136 41.3467 12.1575 41.5741 12.566C41.5877 12.5903 41.6011 12.6145 41.6145 12.6385L41.7159 12.8204L41.8919 12.8602C41.9187 12.8663 41.9458 12.8724 41.973 12.8785C42.4124 12.9777 42.902 13.0882 43.2882 13.2404C43.7278 13.4136 44.4283 13.7916 44.6984 14.6601C44.9631 15.5115 44.619 16.2156 44.3733 16.6059C44.1514 16.9584 43.8228 17.3423 43.521 17.6949C43.5031 17.7157 43.4854 17.7365 43.4677 17.7571L43.3157 17.9349L43.3399 18.1845C43.3425 18.2115 43.3452 18.2387 43.3478 18.2659C43.3938 18.7382 43.4431 19.2451 43.4246 19.6613C43.4048 20.1042 43.2955 20.9054 42.5687 21.4571C41.8164 22.0282 40.9973 21.8879 40.5544 21.761C40.1565 21.6469 39.6991 21.4361 39.2882 21.2466C39.2625 21.2348 39.2371 21.2231 39.2119 21.2114L39.0636 21.1431L38.9153 21.2114C38.8901 21.223 38.8647 21.2347 38.8391 21.2465C38.4282 21.436 37.9708 21.6469 37.5727 21.761C37.1299 21.8879 36.3108 22.0282 35.5585 21.4571C34.8317 20.9054 34.7223 20.1042 34.7026 19.6613C34.6841 19.2451 34.7334 18.7382 34.7794 18.2659C34.782 18.2387 34.7847 18.2115 34.7873 18.1845L34.8115 17.9349L34.6595 17.7571C34.6418 17.7365 34.624 17.7157 34.6062 17.6948C34.3044 17.3423 33.9758 16.9584 33.7539 16.6059C33.5082 16.2156 33.1641 15.5115 33.4288 14.6601C33.6989 13.7916 34.3994 13.4136 34.839 13.2404C35.2252 13.0882 35.7148 12.9777 36.1542 12.8785C36.1814 12.8724 36.2084 12.8663 36.2353 12.8602L36.4113 12.8204L36.5126 12.6385C36.526 12.6145 36.5395 12.5903 36.5531 12.566C36.7805 12.1575 37.0277 11.7136 37.2799 11.3842ZM40.3005 19.5513C40.3005 19.5512 40.3007 19.5495 40.3011 19.5466ZM15.4884 27.4962C19.3755 26.7431 23.5367 26.9121 26.9037 28.9204C27.3767 29.2024 27.8199 29.5539 28.2068 29.9884C28.9898 30.8679 29.3942 31.9611 29.4133 33.0571C29.8118 32.8001 30.2109 32.5146 30.6164 32.2083L34.3814 29.3642C36.2659 27.9406 39.0047 27.9404 40.8896 29.3635C42.6311 30.6785 43.3254 33.0386 42.0787 35.0369C41.1926 36.4573 39.8582 38.4218 38.5002 39.6795C37.1274 40.951 35.1738 42.0199 33.6959 42.7333C31.9011 43.5995 29.9627 44.0784 28.0777 44.3836C24.2253 45.0072 20.2166 44.9118 16.4073 44.127C14.4606 43.7259 12.4376 43.5175 10.4385 43.5175H5.73026C4.86731 43.5175 4.16776 42.8179 4.16776 41.955C4.16776 41.092 4.86731 40.3925 5.73026 40.3925H10.4385C12.6512 40.3925 14.8854 40.6228 17.0379 41.0663C20.4797 41.7753 24.1055 41.8609 27.5784 41.2987C29.3053 41.0192 30.9179 40.6041 32.3375 39.919C33.7613 39.2317 35.362 38.3266 36.3767 37.3868C37.4028 36.4365 38.5512 34.7873 39.4274 33.3828C39.6918 32.959 39.6552 32.3473 39.0065 31.8575C38.2362 31.2759 37.0351 31.276 36.265 31.8577L32.5 34.7018C30.9971 35.8372 29.1471 37.0518 26.8526 37.4178C26.621 37.4547 26.3799 37.4885 26.1297 37.5183C26.0104 37.5399 25.8861 37.5541 25.7578 37.5589C24.5863 37.6753 23.2297 37.7024 21.7329 37.5611C20.8738 37.4799 20.2431 36.7177 20.3242 35.8586C20.4053 34.9995 21.1675 34.3688 22.0267 34.4499C23.3338 34.5733 24.5066 34.5461 25.5015 34.4439C25.5217 34.4419 25.5418 34.4398 25.5619 34.4376C25.6034 34.4135 25.6669 34.3695 25.7502 34.2968C26.4158 33.7159 26.4752 32.7431 25.8727 32.0663C25.72 31.8948 25.5319 31.7408 25.3029 31.6042C22.8422 30.1365 19.5557 29.8913 16.0828 30.5641C12.6296 31.2331 9.19882 32.7743 6.63412 34.5931C5.93022 35.0923 4.95492 34.9264 4.45573 34.2224C3.95653 33.5185 4.12249 32.5432 4.82639 32.044C7.73965 29.978 11.5815 28.2531 15.4884 27.4962Z" fill="white"/>
</svg>
