<svg width="32" height="31" viewBox="0 0 32 31" fill="none" xmlns="http://www.w3.org/2000/svg">
<path d="M1 1L1.43109 1.1437C3.57919 1.85973 4.65324 2.21775 5.26758 3.07009C5.88191 3.92243 5.88191 5.05458 5.88191 7.31888V11.5775C5.88191 16.1802 5.88191 18.4815 7.31179 19.9114C8.74166 21.3413 11.043 21.3413 15.6457 21.3413H28.6641" stroke="white" stroke-width="1.40796" stroke-linecap="round"/>
<path d="M9.95011 25.4095C11.2982 25.4095 12.3911 26.5024 12.3911 27.8505C12.3911 29.1986 11.2982 30.2914 9.95011 30.2914C8.60201 30.2914 7.50916 29.1986 7.50916 27.8505C7.50916 26.5024 8.60201 25.4095 9.95011 25.4095Z" stroke="white" stroke-width="1.40796"/>
<path d="M24.5959 25.4097C25.944 25.4097 27.0368 26.5025 27.0368 27.8506C27.0368 29.1987 25.944 30.2916 24.5959 30.2916C23.2478 30.2916 22.1549 29.1987 22.1549 27.8506C22.1549 26.5025 23.2478 25.4097 24.5959 25.4097Z" stroke="white" stroke-width="1.40796"/>
<path d="M15.6457 10.7637H10.7638" stroke="white" stroke-width="1.40796" stroke-linecap="round"/>
<path d="M5.88184 5.88184H24.5151C27.8591 5.88184 29.5312 5.88184 30.2547 6.97907C30.9782 8.0763 30.3195 9.61314 29.0023 12.6868L28.3048 14.3141C27.6898 15.7491 27.3823 16.4667 26.7709 16.8698C26.1596 17.273 25.3789 17.273 23.8177 17.273H5.88184" stroke="white" stroke-width="1.40796"/>
</svg>
